<svg width="16" height="16" viewBox="0 0 337 337" fill="none" xmlns="http://www.w3.org/2000/svg">
    <path d="M164.5 12.7322C173.767 3.46566 186.16 3.46566 195.427 12.7322L224.268 41.5731C233.535 50.8397 233.535 63.2334 224.268 72.5L180.5 116.268L140.732 76.5L164.5 52.7322Z" fill="#2962FF"/>
    <path d="M84.932 20.9272C94.1986 11.6607 106.592 11.6607 115.859 20.9272L147.071 52.1393C156.337 61.4058 156.337 73.7995 147.071 83.066L120.535 109.602L80.7673 69.8337L84.932 20.9272Z" fill="#2962FF"/>
    <path d="M46.2812 56.2812C55.5477 47.0146 67.9414 47.0146 77.2079 56.2812L116.268 95.3416L85.2079 126.402L45.3416 86.5352C36.0749 77.2687 36.0749 64.8749 45.3416 55.6083L46.2812 56.2812Z" fill="#2962FF"/>
    <path d="M56.2812 116.268L95.3416 155.328L66.5 184.5L37.3416 155.341C28.075 146.075 28.075 133.682 37.3416 124.415L56.2812 116.268Z" fill="#2962FF"/>
    <path d="M116.268 56.2812C125.535 47.0146 137.928 47.0146 147.195 56.2812L216.268 125.354L176.5 165.121L116.268 104.89L76.5 145.659L116.268 56.2812Z" fill="#2962FF"/>
    <path d="M280.707 58.7071C289.974 49.4405 302.367 49.4405 311.634 58.7071L331.268 78.3416C340.535 87.6082 340.535 100.001 331.268 109.268L210.768 229.768C201.501 239.035 189.108 239.035 179.841 229.768L160.207 210.134C150.94 200.867 150.94 188.474 160.207 179.207L280.707 58.7071Z" fill="#2962FF"/>
</svg>

