<!-- <svg width="16" height="16" viewBox="0 0 16 16" fill="none" xmlns="http://www.w3.org/2000/svg">
<path d="M10.54 2.65667H12.0007V0.112667C11.7487 0.078 10.882 0 9.87267 0C7.76667 0 6.324 1.32467 6.324 3.75933V6H4V8.844H6.324V16H9.17333V8.84467H11.4033L11.7573 6.00067H9.17267V4.04133C9.17333 3.21933 9.39467 2.65667 10.54 2.65667V2.65667Z" fill="white"/>
</svg> -->
<svg width="16" height="16" viewBox="0 0 16 16" fill="none" xmlns="http://www.w3.org/2000/svg">
  <path d="M7.999 0C3.581 0 0 3.582 0 7.999c0 3.536 2.292 6.533 5.472 7.59.4.072.546-.173.546-.385 0-.19-.008-.823-.012-1.49-2.226.484-2.695-1.07-2.695-1.07-.364-.923-.89-1.17-.89-1.17-.727-.497.055-.487.055-.487.803.057 1.225.826 1.225.826.715 1.225 1.874.871 2.331.666.072-.518.279-.872.508-1.073-1.777-.202-3.645-.888-3.645-3.952 0-.873.312-1.587.823-2.146-.083-.202-.357-1.015.078-2.114 0 0 .671-.215 2.2.82a7.675 7.675 0 012.002-.27c.679.004 1.364.092 2.002.27 1.53-1.035 2.2-.82 2.2-.82.436 1.099.162 1.912.08 2.114.512.559.823 1.273.823 2.146 0 3.072-1.87 3.747-3.65 3.946.287.246.543.73.543 1.47 0 1.062-.01 1.92-.01 2.18 0 .214.144.462.55.384C13.71 14.53 16 11.533 16 7.999 16 3.582 12.418 0 7.999 0z" fill="white"/>
</svg>
